# xmcd CD database file
#
# Track frame offsets:
#	150
#	14647
#	29661
#	44979
#	60797
#	74352
#	88559
#	102933
#	116067
#	130951
#	145161
#	157055
#	170751
#	181949
#	194407
#	205660
#	216895
#	230170
#	245196
#	258328
#	271652
#	285835
#
# Disc length: 3962 seconds
#
# Revision: 3
# Processed by: cddbd v1.5.2PL0 Copyright (c) Steve Scherf et al.
# Submitted via: CDex 1.51
#
DISCID=520f7816
DTITLE=Ivie Anderson - I've Got The World On A String
DYEAR=2001
DGENRE=Jazz
TTITLE0=It Don't Mean A Thing  [1932]
TTITLE1=I've Got The World On A String  [1933]
TTITLE2=My Old Flame  [1934]
TTITLE3=Troubled Waters  [1934]
TTITLE4=Truckin'  [1935]
TTITLE5=Cotton  [1935]
TTITLE6=Isn't Love The Strangest Thing  [1936]
TTITLE7=Oh Babe! Maybe Someday  [1936]
TTITLE8=Shoe Shine Boy  [1936]
TTITLE9=It Was A Sad Night In Harlem  [1936]
TTITLE10=I've Got To Be A Rug Cutter  [1937]
TTITLE11=There's A Lull In My Live  [1937]
TTITLE12=All God's Chillun Got Rhythm  [1937]
TTITLE13=Alabamy Home  [1937]
TTITLE14=I'm Checkin' Out, Goo'em Bye  [1939]
TTITLE15=Killin' Myself  [1939]
TTITLE16=Me And You  [1940]
TTITLE17=I Got It Bad And That Ain't Good  [1941]
TTITLE18=Chocolate Shake  [1941]
TTITLE19=Jump For Joy  [1941]
TTITLE20=Rocks In My Bed  [1941]
TTITLE21=Hayfoot, Strawfoot  [1942]
EXTD=YEAR: 2001
EXTT0=
EXTT1=
EXTT2=
EXTT3=
EXTT4=
EXTT5=
EXTT6=
EXTT7=
EXTT8=
EXTT9=
EXTT10=
EXTT11=
EXTT12=
EXTT13=
EXTT14=
EXTT15=
EXTT16=
EXTT17=
EXTT18=
EXTT19=
EXTT20=
EXTT21=
PLAYORDER=
